<svg xmlns="http://www.w3.org/2000/svg" width="221.89" height="221.89" viewBox="0 0 221.89 221.89">
  <g id="Group_31505" data-name="Group 31505" transform="translate(-66.241 -41.53)">
    <circle id="Ellipse_180" data-name="Ellipse 180" cx="110.445" cy="110.445" r="110.445" transform="translate(66.741 42.03)" fill="#fff" stroke="rgba(0,0,0,0)" stroke-width="1"/>
    <g id="Group_479" data-name="Group 479">
      <text id="Karadeniz_Tarifleri" data-name="Karadeniz Tarifleri" transform="translate(185.745 219.892)" fill="#203140" font-size="13.241" font-family="AquaGrotesque, Aqua Grotesque" letter-spacing="-0.073em"><tspan x="-59.127" y="0">Karadeniz Tarifleri</tspan></text>
      <g id="Group_478" data-name="Group 478">
        <path id="Path_553" data-name="Path 553" d="M139.41,172.463a15.137,15.137,0,0,1-.653,3.786q-.652,2.372-1.716,5.241t-2.366,5.906q-1.3,3.038-2.606,5.824t-2.4,5.075q-1.1,2.288-1.784,3.535-1.716,3.163-3.4,5.991t-3.325,5.239q-1.032,1.583-2.163,3.288a37.123,37.123,0,0,1-2.264,3.077,18.722,18.722,0,0,1-2.195,2.288,3.14,3.14,0,0,1-1.955.916,6.832,6.832,0,0,1-2.472-.624,29.523,29.523,0,0,1-2.743-1.291,6.647,6.647,0,0,1-2.127-2.12,6.385,6.385,0,0,1-.893-3.537,3.808,3.808,0,0,1,.825-1.871,28.082,28.082,0,0,1,2.058-2.621q1.233-1.413,2.675-3t2.677-3.036a28.585,28.585,0,0,0,2.058-2.7,4.072,4.072,0,0,0,.822-2.079.79.79,0,0,0-.445-.791c-.3-.139-.651-.318-1.065-.541a5.5,5.5,0,0,1-1.3-1.04,5.672,5.672,0,0,1-1.167-2.372,13.424,13.424,0,0,1-.548-2.41c-.137-.945-.253-1.928-.343-2.955s-.163-2.079-.208-3.162-.068-2.092-.068-3.034.034-2.164.1-3.663.173-3.049.31-4.656.309-3.134.514-4.577a20.749,20.749,0,0,1,.72-3.411A2.147,2.147,0,0,1,113.4,165.6a8.832,8.832,0,0,1,2.4-.292,6.423,6.423,0,0,1,2.024.457,13.993,13.993,0,0,1,2.5,1.206,9.378,9.378,0,0,1,2.161,1.789,3.188,3.188,0,0,1,.927,2.123,17.371,17.371,0,0,1-.55,3.825q-.549,2.333-.96,4.992-.411,2.58-.548,4.2t-.137,3.368q0,2,.411,2.289t.891-.624q.754-1.416,1.3-2.664t1.236-2.993q1.3-3.5,2.4-6.948t2.058-7.195a10.218,10.218,0,0,1,1.133-2.87,2.535,2.535,0,0,1,2.229-1.54,3.674,3.674,0,0,1,2.024.791,11.27,11.27,0,0,1,2.126,1.955,12.516,12.516,0,0,1,1.682,2.537A5.6,5.6,0,0,1,139.41,172.463Z" fill="#f3871d" stroke="rgba(0,0,0,0)" stroke-width="1"/>
        <path id="Path_554" data-name="Path 554" d="M155.747,185.3a18.908,18.908,0,0,1-.918,5.556,25.051,25.051,0,0,1-2.478,5.556,16.437,16.437,0,0,1-3.648,4.291,6.9,6.9,0,0,1-4.429,1.706,5.227,5.227,0,0,1-2.8-.825,8.827,8.827,0,0,1-2.363-2.173,11.367,11.367,0,0,1-1.653-3.054,10.252,10.252,0,0,1-.619-3.521,16.487,16.487,0,0,1,.482-3.9,25.893,25.893,0,0,1,1.262-3.852,23.836,23.836,0,0,1,1.836-3.548,27.673,27.673,0,0,1,2.157-3q.458-.551,1.147-1.321a20.083,20.083,0,0,1,1.445-1.458,9.822,9.822,0,0,1,1.537-1.154,2.5,2.5,0,0,1,1.468-.413h.323a1.622,1.622,0,0,1,.939.467,2.688,2.688,0,0,1,.666,1.019A11.725,11.725,0,0,0,151,177.82a1.622,1.622,0,0,0,.665.6,4.655,4.655,0,0,0,.918.331,6,6,0,0,1,.918.3,3.293,3.293,0,0,1,.85.523,3.149,3.149,0,0,1,.71.935,6.547,6.547,0,0,1,.574,2.337Q155.746,184.257,155.747,185.3Zm-6.288-.936a3.256,3.256,0,0,0-.162-1.072c-.107-.313-.283-.469-.531-.469q-.6,0-1.571,1.4a23.429,23.429,0,0,0-1.872,3.3,35.5,35.5,0,0,0-1.549,3.8,9.851,9.851,0,0,0-.647,2.889.923.923,0,0,0,.23.605.635.635,0,0,0,.463.275,1.546,1.546,0,0,0,1.04-.66,14.005,14.005,0,0,0,1.225-1.679,21.366,21.366,0,0,0,1.249-2.283q.6-1.265,1.062-2.448t.764-2.172A5.736,5.736,0,0,0,149.459,184.367Zm3.579-17.385a3.935,3.935,0,0,1-.572,1.265,11.909,11.909,0,0,1-1.1,1.486,7.554,7.554,0,0,1-1.262,1.182,1.387,1.387,0,0,1-1.1.358,2.643,2.643,0,0,1-1.17-.66,4.921,4.921,0,0,1-.9-1.127,4.268,4.268,0,0,1-.5-1.348,3.506,3.506,0,0,1,0-1.377,5.436,5.436,0,0,1,.55-1.429,7.865,7.865,0,0,1,.987-1.431,5.376,5.376,0,0,1,1.193-1.046,1.322,1.322,0,0,1,1.125-.219,2.386,2.386,0,0,1,.941.6,7.181,7.181,0,0,1,.964,1.128,6.476,6.476,0,0,1,.71,1.348A2.084,2.084,0,0,1,153.038,166.982Zm8.215,2.366a4.174,4.174,0,0,1-.55,1.265,11.554,11.554,0,0,1-1.056,1.485,7.4,7.4,0,0,1-1.262,1.21,1.3,1.3,0,0,1-1.17.331,3.357,3.357,0,0,1-1.239-.716,3.722,3.722,0,0,1-.872-1.154,5.521,5.521,0,0,1-.458-1.348,3.06,3.06,0,0,1,0-1.293,3.711,3.711,0,0,1,.55-1.294,12.419,12.419,0,0,1,1.032-1.429,5.682,5.682,0,0,1,1.193-1.1,1.4,1.4,0,0,1,1.079-.3,2.4,2.4,0,0,1,.941.606,7.024,7.024,0,0,1,.964,1.127,6.553,6.553,0,0,1,.71,1.348A2.1,2.1,0,0,1,161.253,169.348Z" fill="#f3871d" stroke="rgba(0,0,0,0)" stroke-width="1"/>
        <path id="Path_555" data-name="Path 555" d="M175.065,179.91a9.568,9.568,0,0,1-.207,1.9,12.236,12.236,0,0,1-.528,1.871,6.913,6.913,0,0,1-.711,1.429c-.26.386-.5.578-.711.578a1.492,1.492,0,0,1-.689-.192q-.367-.192-.711-.386c-.229-.127-.452-.256-.666-.385a1.134,1.134,0,0,0-.55-.192,1.6,1.6,0,0,0-1.468.88,14.49,14.49,0,0,0-1.239,2.724q-.6,1.677-1.17,3.575t-1.125,3.851q-.552,1.953-1.032,3.494a21.778,21.778,0,0,1-.941,2.531q-.461.99-.873.989a1.5,1.5,0,0,1-.9-.246,5.123,5.123,0,0,1-.619-.523c-.183-.183-.343-.358-.481-.523a.613.613,0,0,0-.482-.247,2.942,2.942,0,0,1-2.043-.881,3.45,3.45,0,0,1-.94-2.64,11.515,11.515,0,0,1,.711-3.356q.712-2.146,1.676-4.649t1.9-5.089a31.174,31.174,0,0,0,1.354-4.731c.061-.331.139-.716.23-1.156s.191-.879.3-1.321.222-.842.344-1.21a3.944,3.944,0,0,1,.321-.769,1.857,1.857,0,0,1,1.561-.716,2.833,2.833,0,0,1,2.087.991q.94.99,1.722,1.925.229.274.343.275a1.25,1.25,0,0,0,.483-.275c.183-.146.39-.321.619-.523a7.2,7.2,0,0,1,.712-.55,7.644,7.644,0,0,1,.733-.44,1.438,1.438,0,0,1,.643-.193,1.287,1.287,0,0,1,.964.441,4.39,4.39,0,0,1,.733,1.1,6.276,6.276,0,0,1,.483,1.375A5.942,5.942,0,0,1,175.065,179.91Z" fill="#f3871d" stroke="rgba(0,0,0,0)" stroke-width="1"/>
        <path id="Path_556" data-name="Path 556" d="M193.7,182.276a12.033,12.033,0,0,1-2.332,7.18,8.491,8.491,0,0,1-2.422,2.228,5.507,5.507,0,0,1-2.88.825,3.9,3.9,0,0,1-1.531-.248,3.051,3.051,0,0,1-.891-.55,6.1,6.1,0,0,1-.526-.55.576.576,0,0,0-.434-.248.342.342,0,0,0-.3.221,2.227,2.227,0,0,0-.182.522,3.833,3.833,0,0,0-.091.578c-.016.184-.023.33-.023.442a5.949,5.949,0,0,0,.409,2.21,1.5,1.5,0,0,0,1.5,1.034,2.758,2.758,0,0,0,1-.193c.335-.127.668-.265,1-.412s.667-.284,1-.413a2.809,2.809,0,0,1,1-.192,1.462,1.462,0,0,1,1.261.713,2.872,2.872,0,0,1,.482,1.643,5.691,5.691,0,0,1-.321,1.61,4.623,4.623,0,0,1-.964,1.719,4.083,4.083,0,0,1-1.116.709,13.705,13.705,0,0,1-1.754.682q-.958.3-1.96.518a8.355,8.355,0,0,1-1.732.218,5.1,5.1,0,0,1-2.864-.852,8.214,8.214,0,0,1-2.24-2.229,11.277,11.277,0,0,1-1.477-3.108,12.021,12.021,0,0,1-.531-3.549,16.912,16.912,0,0,1,1.284-6.409,23.637,23.637,0,0,1,3.236-5.667,18.691,18.691,0,0,1,4.221-4.044,7.7,7.7,0,0,1,4.245-1.539,4.231,4.231,0,0,1,2.112.6,7.267,7.267,0,0,1,1.9,1.6,8.33,8.33,0,0,1,1.377,2.283A6.993,6.993,0,0,1,193.7,182.276Zm-5.553.229c0-.739-.169-1.11-.5-1.11a1.956,1.956,0,0,0-.987.556,9.86,9.86,0,0,0-1.354,1.415,10.607,10.607,0,0,0-1.193,1.859,4.181,4.181,0,0,0-.5,1.887q0,.666.735.666a2.489,2.489,0,0,0,1.445-.5A4.739,4.739,0,0,0,187,186.03a7.163,7.163,0,0,0,.826-1.693A5.67,5.67,0,0,0,188.143,182.505Z" fill="#f3871d" stroke="rgba(0,0,0,0)" stroke-width="1"/>
        <path id="Path_557" data-name="Path 557" d="M213.8,180.076a5.7,5.7,0,0,1-.987,3.575,3.469,3.469,0,0,1-2.915,1.266,2.126,2.126,0,0,1-1.01-.22.847.847,0,0,1-.412-.825q0-1.759-.872-1.761a1.672,1.672,0,0,0-.78.22,4.8,4.8,0,0,0-.78.522,3.872,3.872,0,0,0-.619.633,1.031,1.031,0,0,0-.253.606,1.7,1.7,0,0,0,.757,1.32q.756.6,1.7,1.43a9.109,9.109,0,0,1,1.7,2.036,5.96,5.96,0,0,1,.756,3.191,9,9,0,0,1-.916,3.906,13.4,13.4,0,0,1-2.341,3.439,11.727,11.727,0,0,1-3.189,2.42,7.556,7.556,0,0,1-3.465.909,5.35,5.35,0,0,1-2.341-.579,8.56,8.56,0,0,1-2.18-1.513,8.2,8.2,0,0,1-1.605-2.091,4.75,4.75,0,0,1-.62-2.254,4.447,4.447,0,0,1,.322-1.431,10.5,10.5,0,0,1,.8-1.706,7.772,7.772,0,0,1,1.056-1.43,1.581,1.581,0,0,1,1.078-.6.869.869,0,0,1,.872.495,13.391,13.391,0,0,0,1.285,2.475,2.121,2.121,0,0,0,1.791,1.1,1.512,1.512,0,0,0,1.262-.494,2.082,2.082,0,0,0,.389-1.32,1.956,1.956,0,0,0-.689-1.348q-.687-.689-1.514-1.6a12.3,12.3,0,0,1-1.514-2.091,5.526,5.526,0,0,1-.689-2.833,8.482,8.482,0,0,1,.62-3.191,10.458,10.458,0,0,1,1.675-2.8,13.869,13.869,0,0,1,2.386-2.256,11.409,11.409,0,0,1,2.8-1.541,9.717,9.717,0,0,1,3.442-.6,4.389,4.389,0,0,1,2.019.467,5.641,5.641,0,0,1,1.583,1.183,5.362,5.362,0,0,1,1.033,1.6A4.423,4.423,0,0,1,213.8,180.076Z" fill="#f3871d" stroke="rgba(0,0,0,0)" stroke-width="1"/>
        <path id="Path_558" data-name="Path 558" d="M232.884,182.276a12.033,12.033,0,0,1-2.332,7.18,8.491,8.491,0,0,1-2.422,2.228,5.507,5.507,0,0,1-2.88.825,3.9,3.9,0,0,1-1.531-.248,3.052,3.052,0,0,1-.891-.55,6.243,6.243,0,0,1-.526-.55.576.576,0,0,0-.434-.248.343.343,0,0,0-.3.221,2.227,2.227,0,0,0-.182.522,3.833,3.833,0,0,0-.091.578c-.016.184-.023.33-.023.442a5.93,5.93,0,0,0,.41,2.21,1.5,1.5,0,0,0,1.5,1.034,2.758,2.758,0,0,0,1-.193c.335-.127.668-.265,1-.412s.667-.284,1-.413a2.809,2.809,0,0,1,1-.192,1.464,1.464,0,0,1,1.262.713,2.879,2.879,0,0,1,.481,1.643,5.692,5.692,0,0,1-.321,1.61,4.623,4.623,0,0,1-.964,1.719,4.067,4.067,0,0,1-1.116.709,13.7,13.7,0,0,1-1.754.682q-.958.3-1.96.518a8.355,8.355,0,0,1-1.731.218,5.107,5.107,0,0,1-2.865-.852,8.214,8.214,0,0,1-2.24-2.229,11.306,11.306,0,0,1-1.477-3.108,12.021,12.021,0,0,1-.531-3.549,16.913,16.913,0,0,1,1.284-6.409,23.671,23.671,0,0,1,3.236-5.667,18.692,18.692,0,0,1,4.221-4.044,7.7,7.7,0,0,1,4.245-1.539,4.231,4.231,0,0,1,2.112.6,7.267,7.267,0,0,1,1.9,1.6,8.33,8.33,0,0,1,1.377,2.283A6.993,6.993,0,0,1,232.884,182.276Zm-5.553.229c0-.739-.169-1.11-.5-1.11a1.956,1.956,0,0,0-.987.556,9.8,9.8,0,0,0-1.353,1.415,10.554,10.554,0,0,0-1.194,1.859,4.181,4.181,0,0,0-.505,1.887q0,.666.735.666a2.489,2.489,0,0,0,1.445-.5,4.739,4.739,0,0,0,1.216-1.248,7.163,7.163,0,0,0,.826-1.693A5.67,5.67,0,0,0,227.331,182.505Z" fill="#f3871d" stroke="rgba(0,0,0,0)" stroke-width="1"/>
        <path id="Path_559" data-name="Path 559" d="M249.45,171.108q-2.112,4.841-4.016,9.985t-3.373,10.316q-.642,2.312-1.17,4.649t-1.17,4.648a2.558,2.558,0,0,1-.459.964,1.046,1.046,0,0,1-.872.412,4.265,4.265,0,0,1-1.514-.275,2.917,2.917,0,0,1-1.239-.881,11.4,11.4,0,0,1-1.1-1.431,8.059,8.059,0,0,1-.758-1.429,4.265,4.265,0,0,1-.344-1.651,10.593,10.593,0,0,1,.413-2.255q.414-1.6,1.078-3.8t1.561-4.841q.894-2.642,1.835-5.337t1.928-5.254q.987-2.556,1.835-4.62t1.492-3.439a6.189,6.189,0,0,1,1.01-1.7,1.81,1.81,0,0,1,.642-.414,2.113,2.113,0,0,1,.735-.137,1.524,1.524,0,0,1,.825.385c.336.258.68.55,1.032.881s.674.66.964.99.5.57.621.716a2.556,2.556,0,0,1,.618,1.429A5.752,5.752,0,0,1,249.45,171.108Z" fill="#f3871d" stroke="rgba(0,0,0,0)" stroke-width="1"/>
      </g>
    </g>
    <ellipse id="Ellipse_181" data-name="Ellipse 181" cx="44.103" cy="3.356" rx="44.103" ry="3.356" transform="translate(133.083 142.194)" fill="#dfdfde" stroke="rgba(0,0,0,0)" stroke-width="1"/>
    <path id="Path_560" data-name="Path 560" d="M211.651,72.376s-14.452-1.052-23.66,18.515c0,0-13.4-4.807-20.763-5.557-.6-.06-1.151.173-1.349,1.1a14.535,14.535,0,0,0,27.485,8.121,1.579,1.579,0,0,0-.994-2.013c-.6-.28-2.47-1.087-2.47-1.087,2.33-4.03,7.58-10.573,18.883-12.679C221.544,77.714,217.519,71.854,211.651,72.376Zm1.651,3.042c-1.018.1-1.877-.147-1.918-.559s.749-.829,1.767-.932,1.876.147,1.918.559S214.319,75.315,213.3,75.418Z" fill="#b0b6bb" stroke="rgba(0,0,0,0)" stroke-width="1"/>
    <path id="Path_561" data-name="Path 561" d="M166.9,86.281s9.319,5.589,11.186,7.387a5.183,5.183,0,0,1,1.708,3.075c.033.843,1.042,3.583,1.725,3.07.717-.539-.057-1.593.734-2.778a2.707,2.707,0,0,1,1.958-1.459,6.612,6.612,0,0,1,1.456-.306c.875-.126,6.915-.346,7.013-1.235s-11.869-1.659-17.433-4.741C168.384,85.491,166.013,85.689,166.9,86.281Z" fill="#97ba2a" stroke="rgba(0,0,0,0)" stroke-width="1"/>
    <path id="Path_562" data-name="Path 562" d="M174.159,90.232s6.584,3.1,6.519,4.28.035,2.522.666,2.449.708-1.733,1.7-1.922c1.181-.223,2.21-.112,2.766-.329.675-.264-2.436-.682-3.08-.779C181.489,93.743,175.88,90.353,174.159,90.232Z" fill="#bfd145" stroke="rgba(0,0,0,0)" stroke-width="1"/>
    <path id="Path_563" data-name="Path 563" d="M191.662,129.707c-10.088-3.653-11.408.3-12.163,1.624s2.454,4.666-3.488,4.567c-10.678-.178-19.631-10.9-21.282-12.984,10.887,20.993,37.852,17.277,42.9,14.7,13.667-6.969,16.539-21.989,16.539-21.989C208.846,124.95,201.751,133.361,191.662,129.707Z" fill="#97ba2a" stroke="rgba(0,0,0,0)" stroke-width="1"/>
    <path id="Path_564" data-name="Path 564" d="M170.609,86.113s-3.728-1.2-3.967-.228c-.021.085-.186.531,2.71,1.767,0,0-2.361-1.178-2.278-1.656C167.074,86,166.939,85.352,170.609,86.113Z" fill="#99999b" stroke="rgba(0,0,0,0)" stroke-width="1"/>
    <path id="Path_565" data-name="Path 565" d="M185.31,90.4s7.953,2.3,7.687,3.428c0,0-.05.338-.656.558,0,0,.568-.4.24-.727S191,92.373,185.31,90.4Z" fill="#99999b" stroke="rgba(0,0,0,0)" stroke-width="1"/>
    <path id="Path_566" data-name="Path 566" d="M165.781,88.39s-.179,8.055,7.042,12.2a14.354,14.354,0,0,0,15.326-.191,13.239,13.239,0,0,1-14.768-.536S167.841,96.823,165.781,88.39Z" fill="#99999b" stroke="rgba(0,0,0,0)" stroke-width="1"/>
    <path id="Path_567" data-name="Path 567" d="M156.246,94.671s-19.814,1.192-19.827,11.323c-.007,5.788,3.785,15.667,10.606,22.87a46.9,46.9,0,0,0,21.088,13.12,39.016,39.016,0,0,0,29.33-3.626s-7.238,3.661-19.543,1.414c-11.914-2.175-27.555-11.511-28.164-27.445,10.352,2.436,34.156,7.91,61.017-3.5,10.644-5.266,5.04-11.877-5.152-14.357,0,0,14.946,6.492,5.2,11.744-7.444,4.013-30.144,11.9-62.731,3.1C130.772,104.157,148.251,95.452,156.246,94.671Z" fill="#dd3631" stroke="rgba(0,0,0,0)" stroke-width="1"/>
    <path id="Path_568" data-name="Path 568" d="M181.467,110.049a2.042,2.042,0,0,1-1.8-1.857,3.491,3.491,0,0,1,.119-1.588,7.332,7.332,0,0,1,.588-1.329,10.1,10.1,0,0,0,.672-1.508,7.6,7.6,0,0,0,.354-1.689c.006-.056.012-.115.071-.116s.068.062.074.12a6.837,6.837,0,0,0,.512,2.1c.23.526.491,1.029.742,1.539a4.886,4.886,0,0,1,.443,1.218,3.117,3.117,0,0,1-.1,1.755,1.971,1.971,0,0,1-1.292,1.291A3.5,3.5,0,0,1,181.467,110.049Z" fill="#97ba2a" stroke="rgba(0,0,0,0)" stroke-width="1"/>
  </g>
</svg>
